<?xml version="1.0" encoding="utf-8"?>
<!-- Generator: Adobe Illustrator 21.1.0, SVG Export Plug-In . SVG Version: 6.00 Build 0)  -->
<svg version="1.1" id="Capa_1" xmlns="http://www.w3.org/2000/svg" xmlns:xlink="http://www.w3.org/1999/xlink" x="0px" y="0px"
	 viewBox="0 0 40 40" style="enable-background:new 0 0 40 40;" xml:space="preserve">
<style type="text/css">
	.st0{fill:#FFFFFF;}
	.st1{fill:#161616;}
</style>
<circle class="st0" cx="20" cy="20" r="20"/>
<path class="st1" d="M22.6,12.9c0.5,0,1.5,0,2.5,0c0-0.5,0-2.2,0-3.9c-1.3,0-2.7,0-3.4,0c-4.8,0-4.7,3.7-4.7,4.3c0,0.6,0,3,0,3h-2.2
	V20h2.2v11h4.6V20h3.1c0,0,0.3-1.8,0.4-3.7c-0.4,0-3.5,0-3.5,0s0-2.2,0-2.5C21.7,13.4,22.2,12.9,22.6,12.9z"/>
</svg>
