<?xml version="1.0" encoding="utf-8"?>
<!-- Generator: Adobe Illustrator 21.1.0, SVG Export Plug-In . SVG Version: 6.00 Build 0)  -->
<svg version="1.1" id="Capa_1" xmlns="http://www.w3.org/2000/svg" xmlns:xlink="http://www.w3.org/1999/xlink" x="0px" y="0px"
	 viewBox="0 0 40 40" style="enable-background:new 0 0 40 40;" xml:space="preserve">
<style type="text/css">
	.st0{fill:#FFFFFF;}
	.st1{fill:#161616;}
</style>
<circle class="st0" cx="20" cy="20" r="20"/>
<g>
	<g>
		<path class="st1" d="M14.7,17.2h-2.4c-0.3,0-0.6,0.3-0.6,0.6v10.2c0,0.3,0.3,0.6,0.6,0.6h2.4c0.3,0,0.6-0.3,0.6-0.6V17.7
			C15.3,17.4,15,17.2,14.7,17.2z M24.7,16.9h-0.6c-1.2,0-2.2,0.6-2.9,1.5c-0.1,0.1-0.1,0.2-0.2,0.3c0,0,0,0,0,0v-1.3
			c0-0.1-0.1-0.2-0.2-0.2h-3c-0.1,0-0.2,0.1-0.2,0.2v10.9c0,0.1,0.1,0.2,0.2,0.2l3.1,0c0.1,0,0.2-0.1,0.2-0.2V22c0-1.1,0.9-2,2-2
			c0.6,0,1.1,0.2,1.4,0.6c0.4,0.4,0.6,0.9,0.6,1.4v6.3c0,0.1,0.1,0.2,0.2,0.2l3.1,0c0.1,0,0.2-0.1,0.2-0.2v-7.5h0
			C28.6,18.6,26.8,16.9,24.7,16.9z M13.5,11.5c-1.1,0-2.1,0.9-2.1,2c0,1.2,1,2.1,2.1,2c1.1,0,2.1-0.9,2.1-2
			C15.5,12.4,14.6,11.5,13.5,11.5z"/>
	</g>
</g>
</svg>
