<?xml version="1.0" encoding="utf-8"?>
<!-- Generator: Adobe Illustrator 21.1.0, SVG Export Plug-In . SVG Version: 6.00 Build 0)  -->
<svg version="1.1" id="Capa_1" xmlns="http://www.w3.org/2000/svg" xmlns:xlink="http://www.w3.org/1999/xlink" x="0px" y="0px"
	 viewBox="0 0 40 40" style="enable-background:new 0 0 40 40;" xml:space="preserve">
<style type="text/css">
	.st0{fill:#FFFFFF;}
	.st1{fill:#161616;}
</style>
<circle class="st0" cx="20" cy="20" r="20"/>
<g>
	<path class="st1" d="M31.2,17.1c0.6-0.9,1.3-1.8,1.6-2.8c0.2-0.7,0-1-0.7-1.1c-0.1,0-0.2,0-0.4,0l-4.1,0c-0.5,0-0.8,0.2-1,0.7
		c-0.2,0.6-0.5,1.2-0.8,1.8c-0.6,1.3-1.4,2.6-2.4,3.7c-0.2,0.2-0.5,0.5-0.8,0.4c-0.5-0.2-0.6-0.9-0.6-1.2l0-4.7
		c-0.1-0.7-0.2-1-0.9-1.1l-4.2,0c-0.6,0-0.8,0.2-1.2,0.6c-0.2,0.2-0.2,0.3,0.1,0.4c0.7,0.1,1.1,0.6,1.2,1.3c0.2,1.1,0.2,2.3,0.1,3.4
		c0,0.3-0.1,0.7-0.2,1c-0.2,0.5-0.5,0.6-1,0.3c-0.4-0.3-0.7-0.7-0.9-1c-1-1.4-1.8-3-2.5-4.6c-0.2-0.5-0.5-0.8-1-0.8
		c-1.2,0-2.4,0-3.7,0c-0.7,0-1,0.4-0.7,1c1.3,3,2.8,5.8,4.8,8.5c1,1.3,2.1,2.5,3.6,3.4c1.7,1,3.5,1.2,5.4,1.2c0.9,0,1.2-0.3,1.2-1.2
		c0-0.6,0.1-1.2,0.4-1.8c0.3-0.5,0.7-0.6,1.2-0.3c0.3,0.2,0.5,0.4,0.7,0.6c0.5,0.5,1,1.1,1.5,1.6c0.6,0.7,1.4,1.1,2.4,1l3.8,0
		c0.6,0,0.9-0.8,0.6-1.5c-0.2-0.5-0.6-0.9-0.9-1.3c-0.8-0.9-1.7-1.7-2.5-2.5c-0.8-0.8-0.8-1.2-0.2-2.1C29.8,19,30.5,18.1,31.2,17.1z
		"/>
</g>
</svg>
